<?xml version="1.0" encoding="UTF-8"?>
<!DOCTYPE svg PUBLIC "-//W3C//DTD SVG 1.1//EN" "http://www.w3.org/Graphics/SVG/1.1/DTD/svg11.dtd">
<svg xmlns="http://www.w3.org/2000/svg" version="1.1" width="520px" height="280px" style="shape-rendering:geometricPrecision; text-rendering:geometricPrecision; image-rendering:optimizeQuality; fill-rule:evenodd; clip-rule:evenodd" xmlns:xlink="http://www.w3.org/1999/xlink">
<g><path style="opacity:1" fill="#f9f9f9" d="M -0.5,-0.5 C 86.1667,-0.5 172.833,-0.5 259.5,-0.5C 259.5,86.1667 259.5,172.833 259.5,259.5C 346.167,259.5 432.833,259.5 519.5,259.5C 519.5,266.167 519.5,272.833 519.5,279.5C 346.167,279.5 172.833,279.5 -0.5,279.5C -0.5,186.167 -0.5,92.8333 -0.5,-0.5 Z"/></g>
<g><path style="opacity:1" fill="#000000" d="M 259.5,-0.5 C 346.167,-0.5 432.833,-0.5 519.5,-0.5C 519.5,86.1667 519.5,172.833 519.5,259.5C 432.833,259.5 346.167,259.5 259.5,259.5C 259.5,172.833 259.5,86.1667 259.5,-0.5 Z"/></g>
<g><path style="opacity:1" fill="#0f0f0f" d="M 140.5,73.5 C 160.115,77.8549 179.615,82.5215 199,87.5C 199.667,88.5 199.667,89.5 199,90.5C 195.261,96.7294 191.761,103.063 188.5,109.5C 193.248,116.421 198.582,122.921 204.5,129C 199.419,132.257 193.919,134.757 188,136.5C 187.832,145.851 187.332,155.184 186.5,164.5C 167.435,171.799 148.268,178.799 129,185.5C 110.148,181.079 91.3151,176.579 72.5,172C 71.6738,154.24 71.1738,136.407 71,118.5C 66.6667,113.5 62.3333,108.5 58,103.5C 56.3983,101.631 55.3983,99.6313 55,97.5C 73.2059,90.1524 91.7059,83.4858 110.5,77.5C 111.5,77.6667 112.5,77.8333 113.5,78C 118.709,83.0413 123.709,88.208 128.5,93.5C 132.511,86.8056 136.511,80.1389 140.5,73.5 Z"/></g>
<g><path style="opacity:1" fill="#eaeaea" d="M 400.5,73.5 C 420.203,77.3664 439.703,82.0331 459,87.5C 459.667,88.5 459.667,89.5 459,90.5C 455.366,96.9362 451.866,103.436 448.5,110C 454.209,116.04 459.543,122.374 464.5,129C 459.395,131.769 454.061,134.269 448.5,136.5C 447.668,145.816 447.168,155.149 447,164.5C 427.746,171.696 408.413,178.696 389,185.5C 369.682,181.708 350.682,177.041 332,171.5C 331.667,153.833 331.333,136.167 331,118.5C 326.667,113.5 322.333,108.5 318,103.5C 316.398,101.631 315.398,99.6313 315,97.5C 333.206,90.1524 351.706,83.4858 370.5,77.5C 371.5,77.6667 372.5,77.8333 373.5,78C 378.709,83.0413 383.709,88.208 388.5,93.5C 392.511,86.8056 396.511,80.1389 400.5,73.5 Z"/></g>
<g><path style="opacity:1" fill="#f4f4f4" d="M 142.5,78.5 C 159.622,82.0988 176.622,86.0988 193.5,90.5C 190.553,96.7508 186.887,102.417 182.5,107.5C 168.141,104.435 153.807,101.269 139.5,98C 136.992,97.885 134.992,96.885 133.5,95C 136.378,89.4088 139.378,83.9088 142.5,78.5 Z"/></g>
<g><path style="opacity:1" fill="#050505" d="M 402.5,78.5 C 419.416,82.645 436.416,86.645 453.5,90.5C 450.553,96.7508 446.887,102.417 442.5,107.5C 425.904,104.251 409.571,100.251 393.5,95.5C 396.258,89.6481 399.258,83.9815 402.5,78.5 Z"/></g>
<g><path style="opacity:1" fill="#f0f0f0" d="M 107.5,82.5 C 108.873,82.3433 110.207,82.51 111.5,83C 115.667,87.1667 119.833,91.3333 124,95.5C 124.591,96.4835 124.257,97.1501 123,97.5C 119.292,99.0144 115.459,100.014 111.5,100.5C 102.564,98.3439 93.5635,96.8439 84.5,96C 80.791,101.919 76.9576,107.752 73,113.5C 69.1667,109 65.3333,104.5 61.5,100C 76.7929,93.8501 92.1263,88.0168 107.5,82.5 Z"/></g>
<g><path style="opacity:1" fill="#0b0b0b" d="M 367.5,82.5 C 368.873,82.3433 370.207,82.51 371.5,83C 375.667,87.1667 379.833,91.3333 384,95.5C 384.591,96.4835 384.257,97.1501 383,97.5C 379.438,98.9101 375.771,99.9101 372,100.5C 362.845,98.5494 353.679,97.0494 344.5,96C 340.791,101.919 336.958,107.752 333,113.5C 329.167,109 325.333,104.5 321.5,100C 336.815,93.8436 352.149,88.0103 367.5,82.5 Z"/></g>
<g><path style="opacity:1" fill="#f3f3f3" d="M 86.5,100.5 C 103.642,103.548 120.642,107.215 137.5,111.5C 134.7,116.796 131.7,121.963 128.5,127C 111.687,124.466 95.0206,120.966 78.5,116.5C 78.1667,116.167 77.8333,115.833 77.5,115.5C 80.7629,110.638 83.7629,105.638 86.5,100.5 Z"/></g>
<g><path style="opacity:1" fill="#efefef" d="M 126.5,100.5 C 143.052,102.926 159.385,106.426 175.5,111C 162.298,116.677 148.965,121.177 135.5,124.5C 138,120.167 140.5,115.833 143,111.5C 143.49,110.207 143.657,108.873 143.5,107.5C 136.44,106.314 129.44,104.814 122.5,103C 123.858,102.066 125.192,101.232 126.5,100.5 Z"/></g>
<g><path style="opacity:1" fill="#050505" d="M 346.5,100.5 C 363.575,103.782 380.575,107.448 397.5,111.5C 394.713,117.437 391.213,122.77 387,127.5C 370.353,124.046 353.853,120.046 337.5,115.5C 340.763,110.638 343.763,105.638 346.5,100.5 Z"/></g>
<g><path style="opacity:1" fill="#090909" d="M 386.5,100.5 C 402.955,103.354 419.289,106.854 435.5,111C 422.461,115.735 409.461,120.568 396.5,125.5C 396.167,125.167 395.833,124.833 395.5,124.5C 398.438,119.622 401.105,114.622 403.5,109.5C 403.182,108.353 402.516,107.519 401.5,107C 395.093,105.988 388.76,104.655 382.5,103C 383.858,102.066 385.192,101.232 386.5,100.5 Z"/></g>
<g><path style="opacity:1" fill="#f4f4f4" d="M 181.5,113.5 C 182.873,113.343 184.207,113.51 185.5,114C 189.314,118.649 193.314,123.149 197.5,127.5C 180.87,134.322 164.037,140.655 147,146.5C 142.155,141.989 137.655,137.155 133.5,132C 149.526,125.717 165.526,119.55 181.5,113.5 Z"/></g>
<g><path style="opacity:1" fill="#060606" d="M 441.5,113.5 C 443.144,113.286 444.644,113.62 446,114.5C 449.298,118.8 452.965,122.8 457,126.5C 457.591,127.483 457.257,128.15 456,128.5C 439.744,134.697 423.41,140.697 407,146.5C 402.159,141.986 397.659,137.152 393.5,132C 409.538,125.714 425.538,119.547 441.5,113.5 Z"/></g>
<g><path style="opacity:1" fill="#f8f8f8" d="M 78.5,121.5 C 94.7118,124.751 110.712,128.417 126.5,132.5C 126.83,148.342 126.496,164.009 125.5,179.5C 109.012,176.469 92.6787,172.803 76.5,168.5C 75.8489,152.464 76.5156,136.798 78.5,121.5 Z"/></g>
<g><path style="opacity:1" fill="#010101" d="M 337.5,121.5 C 353.991,125.01 370.324,128.676 386.5,132.5C 386.83,148.342 386.496,164.009 385.5,179.5C 369.099,176.031 352.766,172.364 336.5,168.5C 336.17,152.658 336.504,136.991 337.5,121.5 Z"/></g>
<g><path style="opacity:1" fill="#f7f7f7" d="M 133.5,138.5 C 136.841,143.841 141.174,148.174 146.5,151.5C 157.849,147.489 169.183,143.489 180.5,139.5C 182.463,146.424 183.13,153.757 182.5,161.5C 165.741,167.308 149.075,173.308 132.5,179.5C 132.171,165.656 132.504,151.99 133.5,138.5 Z"/></g>
<g><path style="opacity:1" fill="#030303" d="M 393.5,138.5 C 396.841,143.841 401.174,148.174 406.5,151.5C 418.398,147.299 430.231,142.966 442,138.5C 442.831,146.188 442.665,153.855 441.5,161.5C 425.138,167.509 408.805,173.509 392.5,179.5C 392.171,165.656 392.504,151.99 393.5,138.5 Z"/></g>
<g><path style="opacity:1" fill="#545454" d="M 180.5,139.5 C 181.209,138.596 182.209,138.263 183.5,138.5C 183.825,146.352 183.492,154.018 182.5,161.5C 183.13,153.757 182.463,146.424 180.5,139.5 Z"/></g>
<g><path style="opacity:1" fill="#acacac" d="M 126.5,132.5 C 127.827,148.338 127.827,164.338 126.5,180.5C 125.893,180.376 125.56,180.043 125.5,179.5C 126.496,164.009 126.83,148.342 126.5,132.5 Z"/></g>
<g><path style="opacity:1" fill="#acacac" d="M 133.5,138.5 C 132.504,151.99 132.171,165.656 132.5,179.5C 131.174,165.661 131.174,151.661 132.5,137.5C 133.107,137.624 133.44,137.957 133.5,138.5 Z"/></g>
<g><path style="opacity:1" fill="#888888" d="M 78.5,121.5 C 76.5156,136.798 75.8489,152.464 76.5,168.5C 75.5036,152.675 75.1703,136.675 75.5,120.5C 76.791,120.263 77.791,120.596 78.5,121.5 Z"/></g>
<g><path style="opacity:1" fill="#737373" d="M 337.5,121.5 C 336.504,136.991 336.17,152.658 336.5,168.5C 335.173,152.662 335.173,136.662 336.5,120.5C 337.107,120.624 337.44,120.957 337.5,121.5 Z"/></g>
<g><path style="opacity:1" fill="#4c4b4c" d="M 386.5,132.5 C 387.827,148.338 387.827,164.338 386.5,180.5C 385.893,180.376 385.56,180.043 385.5,179.5C 386.496,164.009 386.83,148.342 386.5,132.5 Z"/></g>
<g><path style="opacity:1" fill="#515151" d="M 393.5,138.5 C 392.504,151.99 392.171,165.656 392.5,179.5C 391.174,165.661 391.174,151.661 392.5,137.5C 393.107,137.624 393.44,137.957 393.5,138.5 Z"/></g>
<g><path style="opacity:1" fill="#7a7a7a" d="M 186.5,266.5 C 190.748,267.588 192.248,270.255 191,274.5C 190.091,269.27 188.925,269.27 187.5,274.5C 185.979,274.12 184.313,273.954 182.5,274C 184.901,273.195 184.734,272.362 182,271.5C 181.817,268.718 182.984,268.051 185.5,269.5C 184.145,270.675 184.312,271.675 186,272.5C 186.495,270.527 186.662,268.527 186.5,266.5 Z"/></g>
<g><path style="opacity:1" fill="#7c7c7c" d="M 275.5,266.5 C 279.491,266.648 280.324,268.314 278,271.5C 278.035,267.755 277.035,267.088 275,269.5C 274.53,268.423 274.697,267.423 275.5,266.5 Z"/></g>
<g><path style="opacity:1" fill="#4f4f4f" d="M 308.5,266.5 C 308.98,269.166 309.98,271.666 311.5,274C 307.787,275.205 306.787,274.205 308.5,271C 308.333,270.167 308.167,269.333 308,268.5C 307.346,269.696 306.846,269.696 306.5,268.5C 307.243,267.818 307.909,267.151 308.5,266.5 Z"/></g>
<g><path style="opacity:1" fill="#434343" d="M 332.5,266.5 C 337.041,266.331 337.374,266.998 333.5,268.5C 336.131,270.005 335.797,270.671 332.5,270.5C 332.5,269.167 332.5,267.833 332.5,266.5 Z"/></g>
<g><path style="opacity:1" fill="#838383" d="M 206.5,273.5 C 206.815,268.959 208.649,267.959 212,270.5C 212.519,269.484 213.353,268.818 214.5,268.5C 216.06,269.607 217.56,269.607 219,268.5C 219.5,268.833 220,269.167 220.5,269.5C 219.948,271.003 219.948,272.669 220.5,274.5C 216.107,274.543 215.774,274.043 219.5,273C 218.034,272.365 216.7,271.531 215.5,270.5C 214.833,271.833 214.167,273.167 213.5,274.5C 212.614,273.675 212.281,272.675 212.5,271.5C 208.029,271.672 207.696,272.506 211.5,274C 209.735,274.64 208.068,274.473 206.5,273.5 Z"/></g>
<g><path style="opacity:1" fill="#616161" d="M 226.5,268.5 C 230.071,268.408 231.238,270.074 230,273.5C 228.667,268.167 227.333,268.167 226,273.5C 225.36,271.735 225.527,270.068 226.5,268.5 Z"/></g>
<g><path style="opacity:1" fill="#5f5f5f" d="M 254.5,273.5 C 253.605,268.204 252.438,268.204 251,273.5C 250.51,272.207 250.343,270.873 250.5,269.5C 254.927,267.926 256.26,269.26 254.5,273.5 Z"/></g>
<g><path style="opacity:1" fill="#606060" d="M 283.5,266.5 C 284.774,267.189 284.774,268.023 283.5,269C 284.308,269.308 284.975,269.808 285.5,270.5C 284.174,270.205 282.841,270.705 281.5,272C 282.536,273.617 283.703,273.784 285,272.5C 285.432,273.6 284.932,274.267 283.5,274.5C 281.734,274.566 280.734,273.732 280.5,272C 281.124,269.915 282.124,268.082 283.5,266.5 Z"/></g>
<g><path style="opacity:1" fill="#656565" d="M 300.5,266.5 C 301.833,266.5 303.167,266.5 304.5,266.5C 304.318,268.591 304.652,270.591 305.5,272.5C 303.737,274.936 301.737,275.103 299.5,273C 300.951,273.263 302.284,273.096 303.5,272.5C 302.167,271.167 302.167,269.833 303.5,268.5C 302.726,267.289 301.893,267.289 301,268.5C 300.536,267.906 300.369,267.239 300.5,266.5 Z"/></g>
<g><path style="opacity:1" fill="#484848" d="M 199.5,267.5 C 200.008,269.842 201.008,272.009 202.5,274C 201.552,274.483 200.552,274.649 199.5,274.5C 199.5,272.167 199.5,269.833 199.5,267.5 Z"/></g>
<g><path style="opacity:1" fill="#454545" d="M 206.5,273.5 C 205.791,274.404 204.791,274.737 203.5,274.5C 203.337,272.143 203.503,269.81 204,267.5C 204.002,270.051 204.836,272.051 206.5,273.5 Z"/></g>
<g><path style="opacity:1" fill="#505050" d="M 222.5,267.5 C 223.216,269.556 223.883,271.723 224.5,274C 224.167,274.167 223.833,274.333 223.5,274.5C 222.526,272.257 222.192,269.924 222.5,267.5 Z"/></g>
<g><path style="opacity:1" fill="#b8b8b8" d="M 250.5,269.5 C 250.343,270.873 250.51,272.207 251,273.5C 252.438,268.204 253.605,268.204 254.5,273.5C 252.034,274.634 249.367,274.801 246.5,274C 244.587,269.415 245.921,267.915 250.5,269.5 Z"/></g>
<g><path style="opacity:1" fill="#656565" d="M 329.5,273.5 C 329.279,272.265 328.612,271.265 327.5,270.5C 329.107,269.3 330.107,269.8 330.5,272C 330.43,272.765 330.097,273.265 329.5,273.5 Z"/></g>
<g><path style="opacity:1" fill="#838383" d="M 256.5,269.5 C 257.649,269.791 258.316,270.624 258.5,272C 258.167,272.833 257.833,273.667 257.5,274.5C 256.548,272.955 256.215,271.288 256.5,269.5 Z"/></g>
<g><path style="opacity:1" fill="#515151" d="M 261.5,268.5 C 262.496,268.414 263.329,268.748 264,269.5C 264.667,271.167 264.667,272.833 264,274.5C 263,269.167 262,269.167 261,274.5C 260.322,272.402 260.489,270.402 261.5,268.5 Z"/></g>
<g><path style="opacity:1" fill="#6f6f6f" d="M 315.5,266.5 C 317.117,267.589 317.95,269.256 318,271.5C 318.29,269.956 318.956,268.623 320,267.5C 320.548,274.993 321.881,275.327 324,268.5C 325.253,274.426 323.42,275.759 318.5,272.5C 317.833,273.167 317.167,273.833 316.5,274.5C 315.281,273.354 313.948,272.354 312.5,271.5C 313.397,271.331 314.397,270.998 315.5,270.5C 314.193,269.135 314.193,267.802 315.5,266.5 Z"/></g>
<g><path style="opacity:1" fill="#b9b9b9" d="M 237.5,266.5 C 237.5,269.167 237.5,271.833 237.5,274.5C 235.801,274.66 234.134,274.494 232.5,274C 231.978,273.439 231.645,272.772 231.5,272C 232.977,269.57 234.977,267.737 237.5,266.5 Z"/></g>
<g><path style="opacity:1" fill="#5c5c5c" d="M 237.5,266.5 C 238.29,267.609 238.79,268.942 239,270.5C 239.811,269.04 240.645,268.707 241.5,269.5C 240.67,271.135 240.503,272.802 241,274.5C 239.607,271.875 238.441,271.875 237.5,274.5C 237.5,271.833 237.5,269.167 237.5,266.5 Z"/></g>
<g><path style="opacity:1" fill="#545454" d="M 193.5,269.5 C 194.835,274.535 196.001,274.535 197,269.5C 197.494,271.134 197.66,272.801 197.5,274.5C 196.167,274.5 194.833,274.5 193.5,274.5C 193.5,272.833 193.5,271.167 193.5,269.5 Z"/></g>
<g><path style="opacity:1" fill="#232323" d="M 275.5,272.5 C 276.766,273.09 278.099,273.59 279.5,274C 277.833,274.667 276.167,274.667 274.5,274C 275.056,273.617 275.389,273.117 275.5,272.5 Z"/></g>
<g><path style="opacity:1" fill="#6e6e6e" d="M 287.5,266.5 C 292.22,266.225 292.554,267.059 288.5,269C 290.329,269.273 291.829,270.107 293,271.5C 297.83,264.772 299.33,265.772 297.5,274.5C 296.672,273.585 295.672,272.919 294.5,272.5C 289.959,274.768 288.625,275.101 290.5,273.5C 290.5,272.5 290.5,271.5 290.5,270.5C 289.5,270.5 288.5,270.5 287.5,270.5C 287.5,269.167 287.5,267.833 287.5,266.5 Z"/></g>
<g><path style="opacity:1" fill="#4d4d4d" d="M 329.5,273.5 C 328.292,274.782 326.958,274.782 325.5,273.5C 326.557,273.094 327.891,273.094 329.5,273.5 Z"/></g>
</svg>
